<svg xmlns="http://www.w3.org/2000/svg" xmlns:xlink="http://www.w3.org/1999/xlink" viewBox="0,0,256,256" width="32px" height="32px"><g fill="#25396c" fill-rule="nonzero" stroke="none" stroke-width="1" stroke-linecap="butt" stroke-linejoin="miter" stroke-miterlimit="10" stroke-dasharray="" stroke-dashoffset="0" font-family="none" font-weight="none" font-size="none" text-anchor="none" style="mix-blend-mode: normal"><g transform="scale(8,8)"><path d="M8,5c-1.64497,0 -3,1.35503 -3,3c0,1.64497 1.35503,3 3,3h16c1.64497,0 3,-1.35503 3,-3c0,-1.64497 -1.35503,-3 -3,-3zM8,7h16c0.56503,0 1,0.43497 1,1c0,0.56503 -0.43497,1 -1,1h-16c-0.56503,0 -1,-0.43497 -1,-1c0,-0.56503 0.43497,-1 1,-1zM8,13c-1.64497,0 -3,1.35503 -3,3c0,1.64497 1.35503,3 3,3h16c1.64497,0 3,-1.35503 3,-3c0,-1.64497 -1.35503,-3 -3,-3zM8,15h16c0.56503,0 1,0.43497 1,1c0,0.56503 -0.43497,1 -1,1h-16c-0.56503,0 -1,-0.43497 -1,-1c0,-0.56503 0.43497,-1 1,-1zM8,21c-1.64497,0 -3,1.35503 -3,3c0,1.64497 1.35503,3 3,3h16c1.64497,0 3,-1.35503 3,-3c0,-1.64497 -1.35503,-3 -3,-3zM8,23h16c0.56503,0 1,0.43497 1,1c0,0.56503 -0.43497,1 -1,1h-16c-0.56503,0 -1,-0.43497 -1,-1c0,-0.56503 0.43497,-1 1,-1z"></path></g></g></svg>